<svg xmlns="http://www.w3.org/2000/svg" xmlns:xlink="http://www.w3.org/1999/xlink">
    <symbol id="account-circle" viewBox="0 0 24 24" xmlns="http://www.w3.org/2000/svg">
        <path d="M12,19.2C9.5,19.2 7.29,17.92 6,16C6.03,14 10,12.9 12,12.9C14,12.9 17.97,14 18,16C16.71,17.92 14.5,19.2 12,19.2M12,5A3,3 0 0,1 15,8A3,3 0 0,1 12,11A3,3 0 0,1 9,8A3,3 0 0,1 12,5M12,2A10,10 0 0,0 2,12A10,10 0 0,0 12,22A10,10 0 0,0 22,12C22,6.47 17.5,2 12,2Z" />
    </symbol>
    <symbol id="agent-active" viewBox="0 0 24 24" xmlns="http://www.w3.org/2000/svg">
        <path d="M 9.4589844 4 C 6.4343018 4 4 6.4343018 4 9.4589844 L 4 14.541016 C 4 17.565698 6.4343018 20 9.4589844 20 L 14.541016 20 C 17.565698 20 20 17.565698 20 14.541016 L 20 9.4589844 C 20 6.4343018 17.565698 4 14.541016 4 L 9.4589844 4 z M 9.9355469 5.5 L 14.064453 5.5 C 16.522008 5.5 18.5 7.4779921 18.5 9.9355469 L 18.5 14.064453 C 18.5 16.522008 16.522008 18.5 14.064453 18.5 L 9.9355469 18.5 C 7.4779921 18.5 5.5 16.522008 5.5 14.064453 L 5.5 9.9355469 C 5.5 7.4779921 7.4779921 5.5 9.9355469 5.5 z "/> 
    </symbol>
    <symbol id="agent-passive" viewBox="0 0 24 24" xmlns="http://www.w3.org/2000/svg">
        <path d="M 4 4 L 4 20 L 20 20 L 20 4 L 4 4 z M 5.5 5.5 L 18.5 5.5 L 18.5 18.5 L 5.5 18.5 L 5.5 5.5 z "/>
    </symbol>
    <symbol id="arrow-left" viewBox="0 0 24 24" xmlns="http://www.w3.org/2000/svg">
        <path d="M20,11V13H8L13.5,18.5L12.08,19.92L4.16,12L12.08,4.08L13.5,5.5L8,11H20Z" />
    </symbol>
    <symbol id="arrow-right" viewBox="0 0 24 24" xmlns="http://www.w3.org/2000/svg">
        <path d="M4,11V13H16L10.5,18.5L11.92,19.92L19.84,12L11.92,4.08L10.5,5.5L16,11H4Z" />
    </symbol>
    <symbol id="briefcase" viewBox="0 0 24 24" xmlns="http://www.w3.org/2000/svg">
        <path d="M10,2H14A2,2 0 0,1 16,4V6H20A2,2 0 0,1 22,8V19A2,2 0 0,1 20,21H4C2.89,21 2,20.1 2,19V8C2,6.89 2.89,6 4,6H8V4C8,2.89 8.89,2 10,2M14,6V4H10V6H14Z" />
    </symbol>
    <symbol id="check" viewBox="0 0 24 24" xmlns="http://www.w3.org/2000/svg">
        <path d="M21,7L9,19L3.5,13.5L4.91,12.09L9,16.17L19.59,5.59L21,7Z" /> 
    </symbol>
    <symbol id="close" viewBox="0 0 24 24" xmlns="http://www.w3.org/2000/svg">
        <path d="M19 6.41L17.59 5 12 10.59 6.41 5 5 6.41 10.59 12 5 17.59 6.41 19 12 13.41 17.59 19 19 17.59 13.41 12z"/><path d="M0 0h24v24H0z" fill="none"/>
    </symbol>
    <symbol id="connection-relational" viewBox="0 0 24 24" xmlns="http://www.w3.org/2000/svg">
        <path d="M 17.5 4 A 2.5 2.5 0 0 0 15 6.5 A 2.5 2.5 0 0 0 16.5 8.7890625 L 16.5 11 L 5.5 11 L 5.5 12.998047 L 5.5019531 12.998047 L 5.5019531 15.210938 A 2.5 2.5 0 0 0 4 17.5 A 2.5 2.5 0 0 0 6.5 20 A 2.5 2.5 0 0 0 9 17.5 A 2.5 2.5 0 0 0 7.5 15.210938 L 7.5 12.998047 L 16.044922 12.998047 L 16.042969 13 L 18.5 13 L 18.5 11 L 18.498047 11 L 18.498047 8.7890625 A 2.5 2.5 0 0 0 20 6.5 A 2.5 2.5 0 0 0 17.5 4 z M 17.5 5.5 A 1 1 0 0 1 18.5 6.5 A 1 1 0 0 1 17.5 7.5 A 1 1 0 0 1 16.5 6.5 A 1 1 0 0 1 17.5 5.5 z M 6.5 16.5 A 1 1 0 0 1 7.5 17.5 A 1 1 0 0 1 6.5 18.5 A 1 1 0 0 1 5.5 17.5 A 1 1 0 0 1 6.5 16.5 z " /> 
    </symbol>
    <symbol id="connection-straight" viewBox="0 0 24 24" xmlns="http://www.w3.org/2000/svg">
        <path d="M 17.5 4 A 2.5 2.5 0 0 0 15 6.5 A 2.5 2.5 0 0 0 15.173828 7.4121094 L 7.4121094 15.173828 A 2.5 2.5 0 0 0 6.5 15 A 2.5 2.5 0 0 0 4 17.5 A 2.5 2.5 0 0 0 6.5 20 A 2.5 2.5 0 0 0 9 17.5 A 2.5 2.5 0 0 0 8.8261719 16.585938 L 16.224609 9.1855469 L 16.224609 9.1894531 L 16.587891 8.8261719 A 2.5 2.5 0 0 0 17.5 9 A 2.5 2.5 0 0 0 20 6.5 A 2.5 2.5 0 0 0 17.5 4 z M 17.5 5.5 A 1 1 0 0 1 18.5 6.5 A 1 1 0 0 1 17.5 7.5 A 1 1 0 0 1 16.5 6.5 A 1 1 0 0 1 17.5 5.5 z M 6.5 16.5 A 1 1 0 0 1 7.5 17.5 A 1 1 0 0 1 6.5 18.5 A 1 1 0 0 1 5.5 17.5 A 1 1 0 0 1 6.5 16.5 z " /> 
    </symbol>
    <symbol id="content-copy" viewBox="0 0 24 24" xmlns="http://www.w3.org/2000/svg">
        <path d="M19,21H8V7H19M19,5H8A2,2 0 0,0 6,7V21A2,2 0 0,0 8,23H19A2,2 0 0,0 21,21V7A2,2 0 0,0 19,5M16,1H4A2,2 0 0,0 2,3V17H4V3H16V1Z" />
    </symbol>
    <symbol id="content-cut" viewBox="0 0 24 24" xmlns="http://www.w3.org/2000/svg">
        <path d="M19,3L13,9L15,11L22,4V3M12,12.5A0.5,0.5 0 0,1 11.5,12A0.5,0.5 0 0,1 12,11.5A0.5,0.5 0 0,1 12.5,12A0.5,0.5 0 0,1 12,12.5M6,20A2,2 0 0,1 4,18C4,16.89 4.9,16 6,16A2,2 0 0,1 8,18C8,19.11 7.1,20 6,20M6,8A2,2 0 0,1 4,6C4,4.89 4.9,4 6,4A2,2 0 0,1 8,6C8,7.11 7.1,8 6,8M9.64,7.64C9.87,7.14 10,6.59 10,6A4,4 0 0,0 6,2A4,4 0 0,0 2,6A4,4 0 0,0 6,10C6.59,10 7.14,9.87 7.64,9.64L10,12L7.64,14.36C7.14,14.13 6.59,14 6,14A4,4 0 0,0 2,18A4,4 0 0,0 6,22A4,4 0 0,0 10,18C10,17.41 9.87,16.86 9.64,16.36L12,14L19,21H22V20L9.64,7.64Z" />
    </symbol>
    <symbol id="content-paste" viewBox="0 0 24 24" xmlns="http://www.w3.org/2000/svg">
        <path d="M19,20H5V4H7V7H17V4H19M12,2A1,1 0 0,1 13,3A1,1 0 0,1 12,4A1,1 0 0,1 11,3A1,1 0 0,1 12,2M19,2H14.82C14.4,0.84 13.3,0 12,0C10.7,0 9.6,0.84 9.18,2H5A2,2 0 0,0 3,4V20A2,2 0 0,0 5,22H19A2,2 0 0,0 21,20V4A2,2 0 0,0 19,2Z" />
    </symbol>
    <symbol id="crosshairs" viewBox="0 0 24 24" xmlns="http://www.w3.org/2000/svg">
        <path d="M3.05,13H1V11H3.05C3.5,6.83 6.83,3.5 11,3.05V1H13V3.05C17.17,3.5 20.5,6.83 20.95,11H23V13H20.95C20.5,17.17 17.17,20.5 13,20.95V23H11V20.95C6.83,20.5 3.5,17.17 3.05,13M12,5A7,7 0 0,0 5,12A7,7 0 0,0 12,19A7,7 0 0,0 19,12A7,7 0 0,0 12,5Z" />
    </symbol>
    <symbol id="delete" viewBox="0 0 24 24" xmlns="http://www.w3.org/2000/svg">
        <path d="M6 19c0 1.1.9 2 2 2h8c1.1 0 2-.9 2-2V7H6v12zM19 4h-3.5l-1-1h-5l-1 1H5v2h14V4z"/><path d="M0 0h24v24H0z" fill="none"/>
    </symbol>
    <symbol id="edit" viewBox="0 0 24 24" xmlns="http://www.w3.org/2000/svg">
        <path d="M3 17.25V21h3.75L17.81 9.94l-3.75-3.75L3 17.25zM20.71 7.04c.39-.39.39-1.02 0-1.41l-2.34-2.34c-.39-.39-1.02-.39-1.41 0l-1.83 1.83 3.75 3.75 1.83-1.83z"/><path d="M0 0h24v24H0z" fill="none"/>
    </symbol>
    <symbol id="fill-color" viewBox="0 0 24 24" xmlns="http://www.w3.org/2000/svg">
        <path d="M0 0h24v24H0z" fill="none"/><path d="M16.56 8.94L7.62 0 6.21 1.41l2.38 2.38-5.15 5.15c-.59.59-.59 1.54 0 2.12l5.5 5.5c.29.29.68.44 1.06.44s.77-.15 1.06-.44l5.5-5.5c.59-.58.59-1.53 0-2.12zM5.21 10L10 5.21 14.79 10H5.21zM19 11.5s-2 2.17-2 3.5c0 1.1.9 2 2 2s2-.9 2-2c0-1.33-2-3.5-2-3.5z"/><path fill-opacity=".36" d="M0 20h24v4H0z"/>
    </symbol>
    <symbol id="format-horizontal-align-center" viewBox="0 0 24 24" xmlns="http://www.w3.org/2000/svg">
        <path d="M19,16V13H23V11H19V8L15,12L19,16M5,8V11H1V13H5V16L9,12L5,8M11,20H13V4H11V20Z" />
    </symbol>
    <symbol id="format-horizontal-align-left" viewBox="0 0 24 24" xmlns="http://www.w3.org/2000/svg">
        <path d="M11,16V13H21V11H11V8L7,12L11,16M3,20H5V4H3V20Z" />
    </symbol>
    <symbol id="format-horizontal-align-right" viewBox="0 0 24 24" xmlns="http://www.w3.org/2000/svg">
        <path d="M13,8V11H3V13H13V16L17,12L13,8M19,20H21V4H19V20Z" />
    </symbol>
    <symbol id="format-vertical-align-bottom" viewBox="0 0 24 24" xmlns="http://www.w3.org/2000/svg">
        <path d="M16,13H13V3H11V13H8L12,17L16,13M4,19V21H20V19H4Z" />
    </symbol>
    <symbol id="format-vertical-align-center" viewBox="0 0 24 24" xmlns="http://www.w3.org/2000/svg">
        <path d="M8,19H11V23H13V19H16L12,15L8,19M16,5H13V1H11V5H8L12,9L16,5M4,11V13H20V11H4Z" />
    </symbol>
    <symbol id="format-vertical-align-top" viewBox="0 0 24 24" xmlns="http://www.w3.org/2000/svg">
        <path d="M8,11H11V21H13V11H16L12,7L8,11M4,3V5H20V3H4Z" />
    </symbol>
    <symbol id="image" viewBox="0 0 24 24" xmlns="http://www.w3.org/2000/svg">
        <path d="M0 0h24v24H0z" fill="none"/><path d="M21 19V5c0-1.1-.9-2-2-2H5c-1.1 0-2 .9-2 2v14c0 1.1.9 2 2 2h14c1.1 0 2-.9 2-2zM8.5 13.5l2.5 3.01L14.5 12l4.5 6H5l3.5-4.5z"/>
    </symbol>
    <symbol id="information" viewBox="0 0 24 24" xmlns="http://www.w3.org/2000/svg">
        <path d="M13,9H11V7H13M13,17H11V11H13M12,2A10,10 0 0,0 2,12A10,10 0 0,0 12,22A10,10 0 0,0 22,12A10,10 0 0,0 12,2Z" />
    </symbol>
    <symbol id="line" viewBox="0 0 24 24" xmlns="http://www.w3.org/2000/svg">
        <path d="M 4,10.999961 V 12.998 H 16.977467 L 16.975304,13 H 20 v -2 z"/>
    </symbol>
    <symbol id="page-add" viewBox="0 0 24 24" xmlns="http://www.w3.org/2000/svg">
        <path d="M13,9H18.5L13,3.5V9M6,2H14L20,8V20A2,2 0 0,1 18,22H6C4.89,22 4,21.1 4,20V4C4,2.89 4.89,2 6,2M11,15V12H9V15H6V17H9V20H11V17H14V15H11Z" />
    </symbol>
    <symbol id="people" viewBox="0 0 24 24" xmlns="http://www.w3.org/2000/svg">
        <path d="M0 0h24v24H0z" fill="none"/><path d="M16 11c1.66 0 2.99-1.34 2.99-3S17.66 5 16 5c-1.66 0-3 1.34-3 3s1.34 3 3 3zm-8 0c1.66 0 2.99-1.34 2.99-3S9.66 5 8 5C6.34 5 5 6.34 5 8s1.34 3 3 3zm0 2c-2.33 0-7 1.17-7 3.5V19h14v-2.5c0-2.33-4.67-3.5-7-3.5zm8 0c-.29 0-.62.02-.97.05 1.16.84 1.97 1.97 1.97 3.45V19h6v-2.5c0-2.33-4.67-3.5-7-3.5z"/>
    </symbol>
    <symbol id="redo" viewBox="0 0 24 24" xmlns="http://www.w3.org/2000/svg">
        <path d="M0 0h24v24H0z" fill="none"/><path d="M18.4 10.6C16.55 8.99 14.15 8 11.5 8c-4.65 0-8.58 3.03-9.96 7.22L3.9 16c1.05-3.19 4.05-5.5 7.6-5.5 1.95 0 3.73.72 5.12 1.88L13 16h9V7l-3.6 3.6z"/>
    </symbol>
    <symbol id="remove-hierarchy" viewBox="0 0 24 24" xmlns="http://www.w3.org/2000/svg">
        <path d="M 18.90625 4.3925781 L 11.835938 11.464844 L 9.7148438 9.34375 L 9.7148438 15 L 15.371094 15 L 13.25 12.878906 L 14.628906 11.5 L 17.560547 11.5 C 18.634971 11.5 19.5 12.365029 19.5 13.439453 L 19.5 17.560547 C 19.5 18.634971 18.634971 19.5 17.560547 19.5 L 6.4394531 19.5 C 5.3650289 19.5 4.5 18.634971 4.5 17.560547 L 4.5 13.439453 C 4.5 12.365029 5.3650289 11.5 6.4394531 11.5 L 8.25 11.5 L 8.25 10 L 5.6660156 10 C 4.1886824 10 3 11.188682 3 12.666016 L 3 18.333984 C 3 19.811318 4.1886824 21 5.6660156 21 L 18.333984 21 C 19.811318 21 21 19.811318 21 18.333984 L 21 12.666016 C 21 11.188682 19.811318 10 18.333984 10 L 16.128906 10 L 20.320312 5.8066406 L 18.90625 4.3925781 z " />
    </symbol>
    <symbol id="port-add" viewBox="0 0 24 24" xmlns="http://www.w3.org/2000/svg">
        <path d="M 15 4 L 15 6.0898438 A 6 6 0 0 0 10 12 A 6 6 0 0 0 15 17.914062 L 15 20 L 17 20 L 17 17.910156 A 6 6 0 0 0 22 12 A 6 6 0 0 0 17 6.0859375 L 17 4 L 15 4 z M 16 8 A 4 4 0 0 1 20 12 A 4 4 0 0 1 16 16 A 4 4 0 0 1 12 12 A 4 4 0 0 1 16 8 z M 5 12 L 5 15 L 2 15 L 2 17 L 5 17 L 5 20 L 7 20 L 7 17 L 10 17 L 10 15 L 7 15 L 7 12 L 5 12 z " />
    </symbol>
    <symbol id="run-fast" viewBox="0 0 24 24" xmlns="http://www.w3.org/2000/svg">
    <path d="M16.5,5.5A2,2 0 0,0 18.5,3.5A2,2 0 0,0 16.5,1.5A2,2 0 0,0 14.5,3.5A2,2 0 0,0 16.5,5.5M12.9,19.4L13.9,15L16,17V23H18V15.5L15.9,13.5L16.5,10.5C17.89,12.09 19.89,13 22,13V11C20.24,11.03 18.6,10.11 17.7,8.6L16.7,7C16.34,6.4 15.7,6 15,6C14.7,6 14.5,6.1 14.2,6.1L9,8.3V13H11V9.6L12.8,8.9L11.2,17L6.3,16L5.9,18L12.9,19.4M4,9A1,1 0 0,1 3,8A1,1 0 0,1 4,7H7V9H4M5,5A1,1 0 0,1 4,4A1,1 0 0,1 5,3H10V5H5M3,13A1,1 0 0,1 2,12A1,1 0 0,1 3,11H7V13H3Z" />
    </symbol>
    <symbol id="save" viewBox="0 0 24 24" xmlns="http://www.w3.org/2000/svg">
        <path d="M0 0h24v24H0z" fill="none"/><path d="M17 3H5c-1.11 0-2 .9-2 2v14c0 1.1.89 2 2 2h14c1.1 0 2-.9 2-2V7l-4-4zm-5 16c-1.66 0-3-1.34-3-3s1.34-3 3-3 3 1.34 3 3-1.34 3-3 3zm3-10H5V5h10v4z"/>
    </symbol>
    <symbol id="settings" viewBox="0 0 24 24" xmlns="http://www.w3.org/2000/svg">
        <path d="M12,15.5A3.5,3.5 0 0,1 8.5,12A3.5,3.5 0 0,1 12,8.5A3.5,3.5 0 0,1 15.5,12A3.5,3.5 0 0,1 12,15.5M19.43,12.97C19.47,12.65 19.5,12.33 19.5,12C19.5,11.67 19.47,11.34 19.43,11L21.54,9.37C21.73,9.22 21.78,8.95 21.66,8.73L19.66,5.27C19.54,5.05 19.27,4.96 19.05,5.05L16.56,6.05C16.04,5.66 15.5,5.32 14.87,5.07L14.5,2.42C14.46,2.18 14.25,2 14,2H10C9.75,2 9.54,2.18 9.5,2.42L9.13,5.07C8.5,5.32 7.96,5.66 7.44,6.05L4.95,5.05C4.73,4.96 4.46,5.05 4.34,5.27L2.34,8.73C2.21,8.95 2.27,9.22 2.46,9.37L4.57,11C4.53,11.34 4.5,11.67 4.5,12C4.5,12.33 4.53,12.65 4.57,12.97L2.46,14.63C2.27,14.78 2.21,15.05 2.34,15.27L4.34,18.73C4.46,18.95 4.73,19.03 4.95,18.95L7.44,17.94C7.96,18.34 8.5,18.68 9.13,18.93L9.5,21.58C9.54,21.82 9.75,22 10,22H14C14.25,22 14.46,21.82 14.5,21.58L14.87,18.93C15.5,18.67 16.04,18.34 16.56,17.94L19.05,18.95C19.27,19.03 19.54,18.95 19.66,18.73L21.66,15.27C21.78,15.05 21.73,14.78 21.54,14.63L19.43,12.97Z" />
    </symbol>
    <symbol id="undo" viewBox="0 0 24 24" xmlns="http://www.w3.org/2000/svg">
        <path d="M0 0h24v24H0z" fill="none"/><path d="M12.5 8c-2.65 0-5.05.99-6.9 2.6L2 7v9h9l-3.62-3.62c1.39-1.16 3.16-1.88 5.12-1.88 3.54 0 6.55 2.31 7.6 5.5l2.37-.78C21.08 11.03 17.15 8 12.5 8z"/>
    </symbol>
    <symbol id="zoom-in" viewBox="0 0 24 24" xmlns="http://www.w3.org/2000/svg">
        <path d="M15.5 14h-.79l-.28-.27C15.41 12.59 16 11.11 16 9.5 16 5.91 13.09 3 9.5 3S3 5.91 3 9.5 5.91 16 9.5 16c1.61 0 3.09-.59 4.23-1.57l.27.28v.79l5 4.99L20.49 19l-4.99-5zm-6 0C7.01 14 5 11.99 5 9.5S7.01 5 9.5 5 14 7.01 14 9.5 11.99 14 9.5 14z"/><path fill="none" d="M0 0h24v24H0V0z"/><path d="M12 10h-2v2H9v-2H7V9h2V7h1v2h2v1z"/>
    </symbol>
    <symbol id="zoom-out" viewBox="0 0 24 24" xmlns="http://www.w3.org/2000/svg">
        <path fill="none" d="M0 0h24v24H0V0z"/><path d="M15.5 14h-.79l-.28-.27C15.41 12.59 16 11.11 16 9.5 16 5.91 13.09 3 9.5 3S3 5.91 3 9.5 5.91 16 9.5 16c1.61 0 3.09-.59 4.23-1.57l.27.28v.79l5 4.99L20.49 19l-4.99-5zm-6 0C7.01 14 5 11.99 5 9.5S7.01 5 9.5 5 14 7.01 14 9.5 11.99 14 9.5 14zM7 9h5v1H7z"/>
    </symbol>
</svg>
