<?xml version="1.0" encoding="UTF-8" standalone="no"?>
<svg
   xmlns:dc="http://purl.org/dc/elements/1.1/"
   xmlns:cc="http://creativecommons.org/ns#"
   xmlns:rdf="http://www.w3.org/1999/02/22-rdf-syntax-ns#"
   xmlns:svg="http://www.w3.org/2000/svg"
   xmlns="http://www.w3.org/2000/svg"
   xmlns:sodipodi="http://sodipodi.sourceforge.net/DTD/sodipodi-0.dtd"
   xmlns:inkscape="http://www.inkscape.org/namespaces/inkscape"
   version="1.1"
   width="24"
   height="24"
   viewBox="0 0 24 24"
   id="svg4"
   sodipodi:docname="connection-style-relational-2.svg"
   inkscape:version="0.92.3 (2405546, 2018-03-11)">
  <metadata
     id="metadata10">
    <rdf:RDF>
      <cc:Work
         rdf:about="">
        <dc:format>image/svg+xml</dc:format>
        <dc:type
           rdf:resource="http://purl.org/dc/dcmitype/StillImage" />
        <dc:title></dc:title>
      </cc:Work>
    </rdf:RDF>
  </metadata>
  <defs
     id="defs8" />
  <sodipodi:namedview
     pagecolor="#ffffff"
     bordercolor="#666666"
     borderopacity="1"
     objecttolerance="10"
     gridtolerance="10"
     guidetolerance="10"
     inkscape:pageopacity="0"
     inkscape:pageshadow="2"
     inkscape:window-width="1853"
     inkscape:window-height="1025"
     id="namedview6"
     showgrid="false"
     inkscape:zoom="32"
     inkscape:cx="8.4356455"
     inkscape:cy="11.425813"
     inkscape:window-x="67"
     inkscape:window-y="27"
     inkscape:window-maximized="1"
     inkscape:current-layer="svg4" />
  <path
     style="fill:#000000;stroke-width:0.93921691"
     d="M 17.5 4 A 2.5 2.5 0 0 0 15 6.5 A 2.5 2.5 0 0 0 16.5 8.7890625 L 16.5 11 L 5.5 11 L 5.5 12.998047 L 5.5019531 12.998047 L 5.5019531 15.210938 A 2.5 2.5 0 0 0 4 17.5 A 2.5 2.5 0 0 0 6.5 20 A 2.5 2.5 0 0 0 9 17.5 A 2.5 2.5 0 0 0 7.5 15.210938 L 7.5 12.998047 L 16.044922 12.998047 L 16.042969 13 L 18.5 13 L 18.5 11 L 18.498047 11 L 18.498047 8.7890625 A 2.5 2.5 0 0 0 20 6.5 A 2.5 2.5 0 0 0 17.5 4 z M 17.5 5.5 A 1 1 0 0 1 18.5 6.5 A 1 1 0 0 1 17.5 7.5 A 1 1 0 0 1 16.5 6.5 A 1 1 0 0 1 17.5 5.5 z M 6.5 16.5 A 1 1 0 0 1 7.5 17.5 A 1 1 0 0 1 6.5 18.5 A 1 1 0 0 1 5.5 17.5 A 1 1 0 0 1 6.5 16.5 z "
     id="path2" />
</svg>
