<?xml version="1.0" encoding="UTF-8" standalone="no"?>
<svg
   xmlns:dc="http://purl.org/dc/elements/1.1/"
   xmlns:cc="http://creativecommons.org/ns#"
   xmlns:rdf="http://www.w3.org/1999/02/22-rdf-syntax-ns#"
   xmlns:svg="http://www.w3.org/2000/svg"
   xmlns="http://www.w3.org/2000/svg"
   xmlns:sodipodi="http://sodipodi.sourceforge.net/DTD/sodipodi-0.dtd"
   xmlns:inkscape="http://www.inkscape.org/namespaces/inkscape"
   version="1.1"
   width="24"
   height="24"
   viewBox="0 0 24 24"
   id="svg4"
   sodipodi:docname="remove-hierarchy-2.svg"
   inkscape:version="0.92.3 (2405546, 2018-03-11)">
  <metadata
     id="metadata10">
    <rdf:RDF>
      <cc:Work
         rdf:about="">
        <dc:format>image/svg+xml</dc:format>
        <dc:type
           rdf:resource="http://purl.org/dc/dcmitype/StillImage" />
      </cc:Work>
    </rdf:RDF>
  </metadata>
  <defs
     id="defs8" />
  <sodipodi:namedview
     pagecolor="#ffffff"
     bordercolor="#666666"
     borderopacity="1"
     objecttolerance="10"
     gridtolerance="10"
     guidetolerance="10"
     inkscape:pageopacity="0"
     inkscape:pageshadow="2"
     inkscape:window-width="1853"
     inkscape:window-height="1025"
     id="namedview6"
     showgrid="false"
     inkscape:zoom="16"
     inkscape:cx="10.432265"
     inkscape:cy="8.9023993"
     inkscape:window-x="67"
     inkscape:window-y="27"
     inkscape:window-maximized="1"
     inkscape:current-layer="svg4" />
  <path
     style="fill:#000000;stroke-width:0.86915201"
     d="M 18.90625 4.3925781 L 11.835938 11.464844 L 9.7148438 9.34375 L 9.7148438 15 L 15.371094 15 L 13.25 12.878906 L 14.628906 11.5 L 17.560547 11.5 C 18.634971 11.5 19.5 12.365029 19.5 13.439453 L 19.5 17.560547 C 19.5 18.634971 18.634971 19.5 17.560547 19.5 L 6.4394531 19.5 C 5.3650289 19.5 4.5 18.634971 4.5 17.560547 L 4.5 13.439453 C 4.5 12.365029 5.3650289 11.5 6.4394531 11.5 L 8.25 11.5 L 8.25 10 L 5.6660156 10 C 4.1886824 10 3 11.188682 3 12.666016 L 3 18.333984 C 3 19.811318 4.1886824 21 5.6660156 21 L 18.333984 21 C 19.811318 21 21 19.811318 21 18.333984 L 21 12.666016 C 21 11.188682 19.811318 10 18.333984 10 L 16.128906 10 L 20.320312 5.8066406 L 18.90625 4.3925781 z "
     id="rect15" />
</svg>
